<mxfile host="app.diagrams.net" modified="2023-08-16T20:48:15.314Z" agent="Mozilla/5.0 (X11; Linux x86_64) AppleWebKit/537.36 (KHTML, like Gecko) Chrome/115.0.0.0 Safari/537.36" version="21.6.8" etag="eIt3IlEb9TrQVJJ5TXfn" type="github">
  <diagram name="PÃ¡gina-1" id="KUEPPwkLdxU6ef8YoZPK">
    <mxGraphModel>
      <root>
        <mxCell id="0" />
        <mxCell id="1" parent="0" />
      </root>
    </mxGraphModel>
  </diagram>
</mxfile>
